<?xml version="1.0" encoding="UTF-8"?><svg id="a" xmlns="http://www.w3.org/2000/svg" viewBox="0 0 456.6 498.59"><defs><style>.b{stroke-width:12px;}.b,.c,.d,.e{stroke:#ddd;stroke-miterlimit:10;}.b,.d,.e{fill:none;}.c{fill:#ddd;stroke-width:10px;}.d{stroke-linecap:round;}.d,.e{stroke-width:20px;}</style></defs><rect class="e" x="184.83" y="62.18" width="124.14" height="379.02" transform="translate(243.52 604.24) rotate(-135)"/><polygon class="c" points="27.09 471.28 65.42 457.4 40.97 432.96 27.09 471.28"/><rect class="b" x="288.94" y="106.63" width="7.92" height="127.35" rx="3.96" ry="3.96" transform="translate(206.21 -157.23) rotate(45)"/><path class="e" d="M424.25,160.12c63.33-63.33-21.54-150.02-85.78-85.78"/><polyline class="e" points="154.01 434.8 16.16 482.42 63.79 344.58"/><path class="d" d="M108.81,302H27.81c-6.6,0-12-5.4-12-12V22c0-6.6,5.4-12,12-12H295.81c6.6,0,12,5.4,12,12V103"/></svg>