<?xml version="1.0" encoding="UTF-8"?><svg id="a" xmlns="http://www.w3.org/2000/svg" viewBox="0 0 456.6 494.59"><defs><style>.b{stroke-width:12px;}.b,.c,.d{stroke:#ddd;stroke-miterlimit:10;}.b,.d{fill:none;}.c{fill:#ddd;stroke-width:10px;}.d{stroke-width:20px;}</style></defs><rect class="d" x="184.83" y="58.18" width="124.14" height="379.02" transform="translate(246.35 597.41) rotate(-135)"/><polygon class="c" points="27.09 467.28 65.42 453.4 40.97 428.96 27.09 467.28"/><rect class="b" x="288.94" y="102.63" width="7.92" height="127.35" rx="3.96" ry="3.96" transform="translate(203.38 -158.41) rotate(45)"/><path class="d" d="M424.25,156.12c63.33-63.33-21.54-150.02-85.78-85.78"/><polyline class="d" points="63.79 340.58 16.16 478.42 154.01 430.8"/><path class="d" d="M113.04,293.77c-19.08-7.11-36.98-18.34-52.32-33.68C3.51,202.88,3.51,110.12,60.72,52.91c57.21-57.21,149.97-57.21,207.18,0,15.34,15.34,26.57,33.24,33.68,52.32"/></svg>