<?xml version="1.0" encoding="UTF-8"?><svg id="a" xmlns="http://www.w3.org/2000/svg" viewBox="0 0 499.3 497.09"><defs><style>.b{stroke-width:12px;}.b,.c{fill:none;stroke:#ddd;stroke-miterlimit:10;}.c{stroke-width:20px;}</style></defs><path class="c" d="m259.6,486.78l21.18-148.02c0-.17-.12-.31-.26-.31H31.44c-.14,0-.26.14-.26.31l-21.18,148.02c0,.17.12.31.26.31h249.09c.14,0,.26-.14.26-.31Z"/><path class="c" d="m31.18,338.77L239.7,10.31c0-.17,249.34-.31,249.34-.31.14,0,.26.14.26.31l-21.18,148.02c0,.17-.12.31-.26.31"/><line class="c" x1="280.78" y1="338.77" x2="489.04" y2="10"/><line class="c" x1="259.6" y1="486.78" x2="468.11" y2="158.32"/><rect class="b" x="229.17" y="46.87" width="7.92" height="99.2" rx="3.96" ry="3.96" transform="translate(85.78 -108.33) rotate(31.79)"/></svg>