<?xml version="1.0" encoding="UTF-8"?><svg id="a" xmlns="http://www.w3.org/2000/svg" viewBox="0 0 480.06 486.48"><defs><style>.b{stroke-width:12px;}.b,.c{fill:none;stroke:#ddd;stroke-miterlimit:10;}.c{stroke-width:20px;}</style></defs><path class="c" d="m298.55,99.58l87.78,87.78-219.64,219.64c-5.95,5.95-14.68,7.44-22.02,4.47-5.48-2.22-11.71-1.52-16.8,1.49l-96.4,62.15c-11.5,5.19-23.96-5.08-21.06-17.36l63.8-101.37c2.42-4.34,2.8-9.62.68-14.12-3.55-7.54-2.21-16.81,4.02-23.04l219.64-219.64Z"/><rect class="b" x="243.48" y="132.42" width="7.92" height="127.35" rx="3.96" ry="3.96" transform="translate(211.14 -117.53) rotate(45)"/><rect class="c" x="263.38" y="92.72" width="211.42" height="63.64" rx="20.64" ry="20.64" transform="translate(196.17 -224.51) rotate(45)"/><path class="c" d="m338.35,54.79l23.59-22.19c64.24-64.24,149.11,22.45,85.78,85.78"/><line class="c" x1="448.06" y1="118.29" x2="426.35" y2="140.76"/></svg>