<?xml version="1.0" encoding="UTF-8"?><svg id="a" xmlns="http://www.w3.org/2000/svg" viewBox="0 0 487.68 400.58"><defs><style>.b,.c{stroke-linecap:round;}.b,.c,.d{stroke:#ddd;stroke-miterlimit:10;stroke-width:20px;}.b,.d{fill:none;}.c{fill:#ddd;}</style></defs><ellipse class="d" cx="182.09" cy="155.2" rx="128.15" ry="64.36" transform="translate(-42.61 237.37) rotate(-60.53)"/><line class="d" x1="245.14" y1="43.64" x2="456.22" y2="162.92"/><line class="d" x1="329.78" y1="385.86" x2="119.04" y2="266.77"/><path class="d" d="M456.38,163.01c30.95,17.49,27.8,81.61-7.02,143.23-34.82,61.62-88.13,97.39-119.08,79.9"/><path class="b" d="M290.45,196.15c66.21-21.08,111.76-106.26,90.58-146.39-18.33-34.72-95.68-64.54-121.98-8.74"/><path class="c" d="M214.94,211.19c-16,43-96,39-109,66s-20,85-49,102c-13.55,7.94-37.61,2.42-44-11-10-21,8.28-79.97,14-91,6.81-13.16,29.43-43.72,49-57,25.53-17.32,145.68-26.95,139-9Z"/></svg>